<?xml version="1.0" standalone="no"?>
<!DOCTYPE svg PUBLIC "-//W3C//DTD SVG 20010904//EN"
 "http://www.w3.org/TR/2001/REC-SVG-20010904/DTD/svg10.dtd">
<svg version="1.0" xmlns="http://www.w3.org/2000/svg"
 width="1024.000000pt" height="1024.000000pt" viewBox="0 0 1024.000000 1024.000000"
 preserveAspectRatio="xMidYMid meet">
<metadata>
Created by potrace 1.14, written by Peter Selinger 2001-2017
</metadata>
<g transform="translate(0.000000,1024.000000) scale(0.100000,-0.100000)"
fill="#000000" stroke="none">
<path d="M5015 9348 c-60 -22 -123 -46 -140 -53 -16 -7 -88 -34 -160 -60 -71
-26 -143 -53 -160 -60 -16 -7 -190 -72 -385 -145 -195 -73 -394 -147 -442
-166 -49 -19 -94 -34 -101 -34 -7 0 -17 -4 -22 -8 -6 -5 -39 -19 -75 -32 -36
-12 -78 -28 -95 -35 -16 -7 -124 -47 -240 -90 -115 -42 -219 -81 -230 -86 -22
-10 -684 -259 -700 -263 -5 -2 -21 -7 -35 -13 -14 -6 -65 -25 -115 -43 -49
-17 -99 -36 -110 -41 -20 -9 -102 -40 -222 -83 -35 -13 -66 -25 -69 -29 -7 -7
-7 -2723 0 -2847 3 -47 7 -110 10 -140 3 -30 8 -83 11 -117 21 -250 108 -660
205 -968 23 -71 42 -134 44 -140 2 -5 7 -19 11 -30 4 -11 26 -67 48 -125 22
-58 44 -111 50 -117 5 -7 7 -13 3 -13 -4 0 1 -15 11 -32 9 -18 18 -39 19 -45
1 -7 52 -113 112 -235 106 -214 244 -459 263 -466 5 -2 9 -9 9 -15 0 -13 140
-221 152 -225 4 -2 8 -8 8 -13 0 -8 131 -182 191 -254 153 -183 316 -356 465
-492 17 -15 53 -48 81 -73 27 -25 66 -58 88 -75 21 -16 45 -38 54 -48 8 -9 19
-17 23 -17 5 0 16 -8 26 -18 25 -23 46 -39 112 -87 30 -22 61 -45 68 -52 7 -7
17 -13 22 -13 5 0 15 -6 22 -12 22 -22 187 -128 198 -128 5 0 10 -3 10 -8 0
-4 21 -18 48 -32 26 -13 50 -29 54 -35 5 -6 8 -6 8 0 0 7 3 7 8 0 4 -5 18 -16
31 -24 40 -22 271 -141 274 -140 1 0 20 -8 42 -17 22 -10 43 -17 48 -16 4 1 7
-2 7 -8 0 -5 7 -10 15 -10 9 0 35 -10 58 -21 23 -12 42 -21 42 -19 0 1 18 -5
40 -15 22 -9 45 -18 50 -19 6 -1 16 -5 23 -9 6 -5 12 -6 12 -2 0 3 14 -1 30
-10 17 -9 30 -13 30 -9 0 4 6 2 13 -3 12 -11 64 -25 70 -21 2 2 11 -3 20 -11
10 -7 17 -11 17 -7 0 3 16 0 35 -8 19 -8 35 -13 35 -11 0 2 15 -2 33 -10 26
-11 35 -11 47 0 8 7 59 25 112 39 117 32 299 94 313 107 5 5 16 9 25 9 34 0
378 160 530 246 112 63 245 146 248 155 2 5 8 9 12 9 11 0 183 119 224 155 16
14 32 25 35 25 3 0 21 14 40 30 18 16 49 42 68 57 99 78 203 173 338 308 127
128 166 170 252 271 23 27 50 59 60 70 10 12 29 36 43 54 14 18 30 38 35 44 6
6 26 33 45 59 19 26 47 62 62 80 15 18 28 38 28 45 0 6 5 12 10 12 6 0 10 7
10 15 0 8 3 15 8 15 4 0 20 21 37 48 16 26 35 53 41 59 7 7 18 26 26 43 7 16
16 30 20 30 5 0 8 6 8 14 0 8 3 16 8 18 9 4 82 126 82 139 0 5 3 9 8 9 4 0 30
44 57 98 28 53 53 99 56 102 9 7 42 83 41 93 -1 4 3 7 8 7 6 0 10 4 10 10 0 5
23 58 51 117 28 60 52 114 52 121 0 6 4 12 9 12 4 0 7 3 6 8 -1 4 6 24 15 46
9 21 17 44 17 50 0 7 4 16 8 21 8 10 61 144 66 168 2 6 6 19 9 27 9 21 58 172
62 190 2 8 8 27 14 43 6 15 8 27 5 27 -4 0 -1 7 6 15 7 8 10 15 7 15 -3 0 3
25 13 55 10 30 17 55 15 55 -3 0 0 11 5 26 6 14 12 37 15 52 3 15 7 38 10 52
3 14 8 36 11 50 3 14 7 33 10 42 5 18 10 39 18 89 3 19 8 45 11 59 12 60 15
78 20 120 4 25 8 56 10 70 17 109 29 235 40 415 9 140 9 2834 1 2843 -4 4 -11
7 -14 8 -4 0 -14 4 -22 7 -20 9 -202 77 -215 81 -5 2 -17 6 -25 9 -21 9 -283
107 -295 111 -10 3 -26 9 -62 23 -10 3 -20 7 -23 7 -3 1 -16 8 -30 16 -14 7
-26 13 -27 12 -3 -2 -28 6 -68 21 -16 7 -32 12 -35 13 -3 0 -14 4 -25 8 -39
15 -50 19 -55 21 -3 1 -12 5 -20 8 -20 9 -202 78 -215 81 -5 2 -23 9 -40 15
-16 7 -34 14 -40 15 -5 2 -23 9 -40 15 -16 7 -34 14 -40 15 -5 2 -17 6 -25 9
-22 10 -203 78 -215 81 -5 2 -17 6 -25 9 -31 13 -205 79 -215 81 -5 2 -23 9
-40 15 -16 7 -34 14 -40 15 -5 2 -23 9 -40 15 -16 7 -37 14 -45 16 -8 2 -49
18 -90 35 -41 17 -77 31 -80 32 -9 1 -25 6 -45 14 -11 4 -22 8 -25 9 -3 1 -12
5 -20 8 -20 9 -202 78 -215 81 -5 2 -23 9 -40 15 -16 7 -34 14 -40 15 -5 2
-23 9 -40 15 -16 7 -37 14 -47 16 -9 2 -30 11 -47 19 -17 9 -31 14 -31 11 0
-3 -17 3 -37 14 -21 10 -41 19 -45 20 -10 2 -34 10 -55 18 -10 3 -20 7 -23 8
-3 1 -13 5 -22 8 -10 4 -26 10 -35 14 -10 3 -20 7 -23 8 -3 1 -14 5 -25 10
-45 18 -121 47 -130 50 -5 1 -23 8 -40 14 -16 7 -34 14 -40 15 -5 2 -23 9 -40
15 -16 7 -37 14 -45 16 -8 2 -48 17 -87 34 -40 16 -73 27 -73 24 0 -3 -6 -1
-12 5 -9 7 -45 -2 -123 -30z m223 -1687 c201 -63 336 -271 299 -459 l-10 -53
620 -619 619 -619 75 26 c65 24 89 27 199 27 110 0 134 -3 202 -27 70 -24 155
-69 202 -107 92 -74 181 -211 215 -330 22 -81 29 -197 16 -260 -3 -14 -7 -37
-10 -51 -3 -14 -12 -42 -20 -62 -8 -20 -16 -40 -16 -44 -3 -20 -19 -52 -29
-58 -5 -3 -8 -11 -5 -16 4 -5 1 -9 -4 -9 -6 0 -11 -7 -11 -15 0 -8 -4 -15 -10
-15 -5 0 -10 -5 -10 -11 0 -5 -26 -36 -57 -68 -125 -127 -275 -193 -443 -194
-52 -1 -112 2 -132 5 -101 17 -252 93 -324 164 -53 52 -108 129 -138 192 l-30
62 -1319 -2 -1320 -3 -8 -23 c-10 -26 -57 23 742 -782 l376 -380 1 376 c0 207
3 378 6 381 2 2 97 5 210 6 l206 2 1 -45 c0 -25 0 -233 0 -463 0 -382 2 -419
17 -424 30 -12 107 -97 135 -151 30 -55 55 -157 51 -207 -4 -57 -16 -120 -24
-130 -5 -5 -9 -14 -10 -20 -3 -20 -35 -80 -51 -96 -9 -9 -21 -23 -25 -31 -16
-25 -98 -85 -139 -102 -78 -33 -208 -47 -275 -31 -14 3 -30 7 -37 9 -32 6
-113 56 -154 94 -105 97 -141 220 -114 392 5 35 3 38 -609 653 l-614 618 -53
-22 c-109 -42 -233 -54 -349 -33 -25 4 -48 8 -52 8 -3 1 -10 4 -14 9 -4 4 -13
7 -20 7 -19 0 -128 51 -132 61 -2 5 -8 9 -13 9 -18 0 -119 95 -166 155 -138
180 -164 461 -59 656 51 98 57 105 135 183 72 72 177 131 280 157 68 17 103
20 185 16 55 -3 108 -7 116 -10 8 -2 29 -7 45 -12 17 -4 36 -12 43 -18 6 -5
12 -7 12 -3 0 8 87 -41 142 -81 70 -51 141 -136 184 -218 37 -75 38 -75 78
-76 23 0 614 0 1314 -1 1232 0 1274 0 1287 18 8 11 15 25 15 32 0 11 -1112
1132 -1124 1132 -3 0 -5 -129 -5 -287 0 -159 0 -329 0 -379 l-1 -92 -210 0
-210 -1 -1 32 c0 18 0 224 0 459 l0 426 -43 34 c-94 71 -158 203 -158 323 1
134 35 218 126 310 57 57 82 72 162 100 73 25 174 28 242 6z"/>
</g>
</svg>
